<mxfile host="app.diagrams.net" agent="Mozilla/5.0 (Windows NT 10.0; Win64; x64) AppleWebKit/537.36 (KHTML, like Gecko) Chrome/132.0.0.0 Safari/537.36 Edg/132.0.0.0" version="26.0.7">
  <diagram name="Page-1" id="pjLopgUQoMTeIaIfxZGK">
    <mxGraphModel dx="1502" dy="643" grid="1" gridSize="10" guides="1" tooltips="1" connect="1" arrows="1" fold="1" page="1" pageScale="1" pageWidth="850" pageHeight="1100" math="0" shadow="0">
      <root>
        <mxCell id="0" />
        <mxCell id="1" parent="0" />
        <mxCell id="1CP6ehA5ngC1CQktgnU9-1" value="" style="ellipse;html=1;shape=startState;fillColor=#000000;strokeColor=#ff0000;" vertex="1" parent="1">
          <mxGeometry x="20" y="65" width="30" height="30" as="geometry" />
        </mxCell>
        <mxCell id="1CP6ehA5ngC1CQktgnU9-2" value="" style="edgeStyle=orthogonalEdgeStyle;html=1;verticalAlign=bottom;endArrow=open;endSize=8;strokeColor=#ff0000;rounded=0;entryX=0;entryY=0.5;entryDx=0;entryDy=0;" edge="1" source="1CP6ehA5ngC1CQktgnU9-1" parent="1" target="1CP6ehA5ngC1CQktgnU9-3">
          <mxGeometry relative="1" as="geometry">
            <mxPoint x="100" y="85" as="targetPoint" />
          </mxGeometry>
        </mxCell>
        <mxCell id="1CP6ehA5ngC1CQktgnU9-16" value="" style="edgeStyle=orthogonalEdgeStyle;rounded=0;orthogonalLoop=1;jettySize=auto;html=1;" edge="1" parent="1" source="1CP6ehA5ngC1CQktgnU9-3" target="1CP6ehA5ngC1CQktgnU9-15">
          <mxGeometry relative="1" as="geometry" />
        </mxCell>
        <mxCell id="1CP6ehA5ngC1CQktgnU9-22" value="" style="edgeStyle=orthogonalEdgeStyle;rounded=0;orthogonalLoop=1;jettySize=auto;html=1;" edge="1" parent="1" source="1CP6ehA5ngC1CQktgnU9-3" target="1CP6ehA5ngC1CQktgnU9-14">
          <mxGeometry relative="1" as="geometry" />
        </mxCell>
        <mxCell id="1CP6ehA5ngC1CQktgnU9-3" value="Báo cáo tồn kho" style="rounded=1;whiteSpace=wrap;html=1;arcSize=40;fontColor=#000000;fillColor=#ffffc0;strokeColor=light-dark(#FF0500,#FFFFFF);" vertex="1" parent="1">
          <mxGeometry x="100" y="60" width="120" height="40" as="geometry" />
        </mxCell>
        <mxCell id="1CP6ehA5ngC1CQktgnU9-19" style="edgeStyle=orthogonalEdgeStyle;rounded=0;orthogonalLoop=1;jettySize=auto;html=1;entryX=0.5;entryY=0;entryDx=0;entryDy=0;" edge="1" parent="1" source="1CP6ehA5ngC1CQktgnU9-4" target="1CP6ehA5ngC1CQktgnU9-5">
          <mxGeometry relative="1" as="geometry">
            <Array as="points">
              <mxPoint x="360" y="430" />
              <mxPoint x="160" y="430" />
            </Array>
          </mxGeometry>
        </mxCell>
        <mxCell id="1CP6ehA5ngC1CQktgnU9-4" value="Hiển thị danh sách mặt hàng" style="rounded=1;whiteSpace=wrap;html=1;arcSize=40;fontColor=#000000;fillColor=#ffffc0;strokeColor=light-dark(#FF0500,#FFFFFF);" vertex="1" parent="1">
          <mxGeometry x="300" y="370" width="120" height="40" as="geometry" />
        </mxCell>
        <mxCell id="1CP6ehA5ngC1CQktgnU9-10" value="" style="edgeStyle=orthogonalEdgeStyle;rounded=0;orthogonalLoop=1;jettySize=auto;html=1;" edge="1" parent="1" source="1CP6ehA5ngC1CQktgnU9-5" target="1CP6ehA5ngC1CQktgnU9-6">
          <mxGeometry relative="1" as="geometry" />
        </mxCell>
        <mxCell id="1CP6ehA5ngC1CQktgnU9-5" value="Chọn mặt hàng" style="rounded=1;whiteSpace=wrap;html=1;arcSize=40;fontColor=#000000;fillColor=#ffffc0;strokeColor=light-dark(#FF0500,#FFFFFF);" vertex="1" parent="1">
          <mxGeometry x="100" y="450" width="120" height="40" as="geometry" />
        </mxCell>
        <mxCell id="1CP6ehA5ngC1CQktgnU9-21" style="edgeStyle=orthogonalEdgeStyle;rounded=0;orthogonalLoop=1;jettySize=auto;html=1;entryX=0.5;entryY=0;entryDx=0;entryDy=0;" edge="1" parent="1" source="1CP6ehA5ngC1CQktgnU9-6" target="1CP6ehA5ngC1CQktgnU9-20">
          <mxGeometry relative="1" as="geometry">
            <Array as="points">
              <mxPoint x="360" y="510" />
              <mxPoint x="160" y="510" />
            </Array>
          </mxGeometry>
        </mxCell>
        <mxCell id="1CP6ehA5ngC1CQktgnU9-6" value="Hệ thống hiển thị thông tin chi tiết" style="rounded=1;whiteSpace=wrap;html=1;arcSize=40;fontColor=#000000;fillColor=#ffffc0;strokeColor=light-dark(#FF0500,#FFFFFF);" vertex="1" parent="1">
          <mxGeometry x="300" y="450" width="120" height="40" as="geometry" />
        </mxCell>
        <mxCell id="1CP6ehA5ngC1CQktgnU9-7" value="Mã lô hàng, nguồn nhập, ngày giờ thời gian nhập hàng, hạn sử dụng, số lượng hàng tồn kho" style="whiteSpace=wrap;html=1;shape=mxgraph.basic.document;align=center;strokeColor=#000000;" vertex="1" parent="1">
          <mxGeometry x="480" y="410" width="120" height="80" as="geometry" />
        </mxCell>
        <mxCell id="1CP6ehA5ngC1CQktgnU9-11" value="" style="endArrow=none;dashed=1;html=1;dashPattern=1 3;strokeWidth=2;rounded=0;" edge="1" parent="1">
          <mxGeometry width="50" height="50" relative="1" as="geometry">
            <mxPoint x="440" y="449.76" as="sourcePoint" />
            <mxPoint x="480" y="449.76" as="targetPoint" />
            <Array as="points">
              <mxPoint x="460" y="449.76" />
            </Array>
          </mxGeometry>
        </mxCell>
        <mxCell id="1CP6ehA5ngC1CQktgnU9-29" value="" style="edgeStyle=orthogonalEdgeStyle;rounded=0;orthogonalLoop=1;jettySize=auto;html=1;" edge="1" parent="1" source="1CP6ehA5ngC1CQktgnU9-14" target="1CP6ehA5ngC1CQktgnU9-28">
          <mxGeometry relative="1" as="geometry" />
        </mxCell>
        <mxCell id="1CP6ehA5ngC1CQktgnU9-14" value="Tự động" style="rounded=1;whiteSpace=wrap;html=1;arcSize=40;fontColor=#000000;fillColor=#ffffc0;strokeColor=light-dark(#FF0500,#FFFFFF);" vertex="1" parent="1">
          <mxGeometry x="300" y="60" width="120" height="40" as="geometry" />
        </mxCell>
        <mxCell id="1CP6ehA5ngC1CQktgnU9-17" value="" style="edgeStyle=orthogonalEdgeStyle;rounded=0;orthogonalLoop=1;jettySize=auto;html=1;" edge="1" parent="1" source="1CP6ehA5ngC1CQktgnU9-15" target="1CP6ehA5ngC1CQktgnU9-4">
          <mxGeometry relative="1" as="geometry" />
        </mxCell>
        <mxCell id="1CP6ehA5ngC1CQktgnU9-15" value="Thủ công" style="rounded=1;whiteSpace=wrap;html=1;arcSize=40;fontColor=#000000;fillColor=#ffffc0;strokeColor=light-dark(#FF0500,#FFFFFF);" vertex="1" parent="1">
          <mxGeometry x="100" y="370" width="120" height="40" as="geometry" />
        </mxCell>
        <mxCell id="1CP6ehA5ngC1CQktgnU9-20" value="Xác nhận&lt;br&gt;xuất báo cáo" style="rhombus;whiteSpace=wrap;html=1;fontColor=#000000;fillColor=#ffffc0;strokeColor=light-dark(#FF0500,#FFFFFF);" vertex="1" parent="1">
          <mxGeometry x="100" y="530" width="120" height="80" as="geometry" />
        </mxCell>
        <mxCell id="1CP6ehA5ngC1CQktgnU9-25" value="Kiểm tra số&lt;div&gt;lượng hàng tồn kho&lt;br&gt;các mặt hàng&lt;/div&gt;" style="rhombus;whiteSpace=wrap;html=1;fontColor=#000000;fillColor=#ffffc0;strokeColor=light-dark(#FF0500,#FFFFFF);" vertex="1" parent="1">
          <mxGeometry x="460" y="120" width="120" height="80" as="geometry" />
        </mxCell>
        <mxCell id="1CP6ehA5ngC1CQktgnU9-27" value="Kiểm tra&lt;div&gt;hạn sử dụng các&lt;br&gt;mặt hàng&lt;/div&gt;" style="rhombus;whiteSpace=wrap;html=1;fontColor=#000000;fillColor=#ffffc0;strokeColor=light-dark(#FF0500,#FFFFFF);" vertex="1" parent="1">
          <mxGeometry x="670" y="120" width="120" height="80" as="geometry" />
        </mxCell>
        <mxCell id="1CP6ehA5ngC1CQktgnU9-28" value="" style="html=1;points=[];perimeter=orthogonalPerimeter;fillColor=strokeColor;" vertex="1" parent="1">
          <mxGeometry x="440" y="40" width="5" height="80" as="geometry" />
        </mxCell>
        <mxCell id="1CP6ehA5ngC1CQktgnU9-40" value="" style="ellipse;html=1;shape=endState;fillColor=#000000;strokeColor=#ff0000;" vertex="1" parent="1">
          <mxGeometry x="610" y="150" width="30" height="30" as="geometry" />
        </mxCell>
      </root>
    </mxGraphModel>
  </diagram>
</mxfile>
